#define arrows_width 8
#define arrows_height 8
static unsigned char arrows_bits[] = {
   0x00, 0x44, 0x22, 0x11, 0x22, 0x44, 0x00, 0x00 };
