#define headphones_width 10
#define headphones_height 10
static unsigned char headphones_bits[] = {
   0x78, 0x00, 0x84, 0x00, 0x02, 0x01, 0x02, 0x01, 0x4a, 0x01, 0xce, 0x01,
   0xce, 0x01, 0xcc, 0x00, 0x00, 0x00, 0x00, 0x00 };
