#define info_01_width 10
#define info_01_height 10
static unsigned char info_01_bits[] = {
   0x00, 0x00, 0x30, 0x00, 0x78, 0x00, 0x78, 0x00, 0x30, 0x00, 0x30, 0x00,
   0x00, 0x00, 0x30, 0x00, 0x00, 0x00, 0x00, 0x00 };
